<mxfile host="app.diagrams.net" modified="2024-06-02T09:51:51.910Z" agent="Mozilla/5.0 (Windows NT 10.0; Win64; x64) AppleWebKit/537.36 (KHTML, like Gecko) Chrome/125.0.0.0 Safari/537.36 Edg/125.0.0.0" etag="qukt-cTltQpCFTVuRRKs" version="24.4.13" type="github">
  <diagram name="第 1 页" id="4hvzXNgmry64YYaN-glw">
    <mxGraphModel dx="2026" dy="1111" grid="0" gridSize="10" guides="1" tooltips="1" connect="1" arrows="1" fold="1" page="0" pageScale="1" pageWidth="827" pageHeight="1169" math="0" shadow="0">
      <root>
        <mxCell id="0" />
        <mxCell id="1" parent="0" />
        <mxCell id="6xU7i69Siu9_VAtx5HpP-30" style="edgeStyle=orthogonalEdgeStyle;rounded=0;orthogonalLoop=1;jettySize=auto;html=1;exitX=0.5;exitY=1;exitDx=0;exitDy=0;" parent="1" source="6xU7i69Siu9_VAtx5HpP-1" target="6xU7i69Siu9_VAtx5HpP-2" edge="1">
          <mxGeometry relative="1" as="geometry" />
        </mxCell>
        <mxCell id="6xU7i69Siu9_VAtx5HpP-1" value="一体化导出" style="rounded=1;whiteSpace=wrap;html=1;" parent="1" vertex="1">
          <mxGeometry x="250" y="150" width="120" height="60" as="geometry" />
        </mxCell>
        <mxCell id="6xU7i69Siu9_VAtx5HpP-31" style="edgeStyle=orthogonalEdgeStyle;rounded=0;orthogonalLoop=1;jettySize=auto;html=1;exitX=0.5;exitY=1;exitDx=0;exitDy=0;" parent="1" source="6xU7i69Siu9_VAtx5HpP-2" target="6xU7i69Siu9_VAtx5HpP-3" edge="1">
          <mxGeometry relative="1" as="geometry" />
        </mxCell>
        <mxCell id="6xU7i69Siu9_VAtx5HpP-2" value="清查云导入" style="rounded=1;whiteSpace=wrap;html=1;" parent="1" vertex="1">
          <mxGeometry x="250" y="250" width="120" height="60" as="geometry" />
        </mxCell>
        <mxCell id="6xU7i69Siu9_VAtx5HpP-3" value="资产账" style="rounded=1;whiteSpace=wrap;html=1;fillColor=#ffe6cc;strokeColor=#d79b00;" parent="1" vertex="1">
          <mxGeometry x="250" y="350" width="120" height="60" as="geometry" />
        </mxCell>
        <mxCell id="6xU7i69Siu9_VAtx5HpP-4" value="新增盘盈" style="rounded=1;whiteSpace=wrap;html=1;fillColor=#fff2cc;strokeColor=#d6b656;" parent="1" vertex="1">
          <mxGeometry x="510" y="350" width="120" height="60" as="geometry" />
        </mxCell>
        <mxCell id="6xU7i69Siu9_VAtx5HpP-5" value="资产实体" style="rounded=0;whiteSpace=wrap;html=1;fillColor=#dae8fc;strokeColor=#6c8ebf;" parent="1" vertex="1">
          <mxGeometry x="60" y="460" width="120" height="60" as="geometry" />
        </mxCell>
        <mxCell id="6xU7i69Siu9_VAtx5HpP-13" style="edgeStyle=orthogonalEdgeStyle;rounded=0;orthogonalLoop=1;jettySize=auto;html=1;exitX=0.5;exitY=1;exitDx=0;exitDy=0;entryX=0.5;entryY=0;entryDx=0;entryDy=0;" parent="1" source="6xU7i69Siu9_VAtx5HpP-6" target="6xU7i69Siu9_VAtx5HpP-4" edge="1">
          <mxGeometry relative="1" as="geometry" />
        </mxCell>
        <mxCell id="6xU7i69Siu9_VAtx5HpP-6" value="资产实体" style="rounded=0;whiteSpace=wrap;html=1;fillColor=#dae8fc;strokeColor=#6c8ebf;" parent="1" vertex="1">
          <mxGeometry x="510" y="210" width="120" height="60" as="geometry" />
        </mxCell>
        <mxCell id="6xU7i69Siu9_VAtx5HpP-7" value="盘点结果" style="rounded=1;whiteSpace=wrap;html=1;fillColor=#d5e8d4;strokeColor=#82b366;" parent="1" vertex="1">
          <mxGeometry x="387" y="600" width="120" height="60" as="geometry" />
        </mxCell>
        <mxCell id="6xU7i69Siu9_VAtx5HpP-12" value="根据资产实体，完善资产信息" style="text;html=1;align=center;verticalAlign=middle;whiteSpace=wrap;rounded=0;" parent="1" vertex="1">
          <mxGeometry x="190" y="430" width="110" height="55" as="geometry" />
        </mxCell>
        <mxCell id="6xU7i69Siu9_VAtx5HpP-14" value="根据新增资产&lt;br&gt;新增盘盈资产" style="text;html=1;align=center;verticalAlign=middle;whiteSpace=wrap;rounded=0;" parent="1" vertex="1">
          <mxGeometry x="580" y="300" width="100" height="30" as="geometry" />
        </mxCell>
        <mxCell id="6xU7i69Siu9_VAtx5HpP-16" value="" style="endArrow=classic;html=1;rounded=0;exitX=0.5;exitY=1;exitDx=0;exitDy=0;entryX=0.75;entryY=0;entryDx=0;entryDy=0;" parent="1" source="6xU7i69Siu9_VAtx5HpP-4" target="6xU7i69Siu9_VAtx5HpP-7" edge="1">
          <mxGeometry width="50" height="50" relative="1" as="geometry">
            <mxPoint x="540" y="460" as="sourcePoint" />
            <mxPoint x="590" y="410" as="targetPoint" />
            <Array as="points">
              <mxPoint x="570" y="500" />
            </Array>
          </mxGeometry>
        </mxCell>
        <mxCell id="6xU7i69Siu9_VAtx5HpP-18" value="确认盘盈" style="text;html=1;align=center;verticalAlign=middle;whiteSpace=wrap;rounded=0;" parent="1" vertex="1">
          <mxGeometry x="570" y="455" width="60" height="30" as="geometry" />
        </mxCell>
        <mxCell id="6xU7i69Siu9_VAtx5HpP-19" value="" style="strokeWidth=1;html=1;shape=mxgraph.flowchart.annotation_2;align=left;labelPosition=right;pointerEvents=1;rotation=-120;" parent="1" vertex="1">
          <mxGeometry x="220" y="420" width="100" height="151.34" as="geometry" />
        </mxCell>
        <mxCell id="6xU7i69Siu9_VAtx5HpP-21" value="" style="endArrow=classic;html=1;rounded=0;exitX=0;exitY=0.5;exitDx=0;exitDy=0;exitPerimeter=0;entryX=0.25;entryY=0;entryDx=0;entryDy=0;" parent="1" source="6xU7i69Siu9_VAtx5HpP-19" target="6xU7i69Siu9_VAtx5HpP-7" edge="1">
          <mxGeometry width="50" height="50" relative="1" as="geometry">
            <mxPoint x="270" y="670" as="sourcePoint" />
            <mxPoint x="320" y="620" as="targetPoint" />
          </mxGeometry>
        </mxCell>
        <mxCell id="6xU7i69Siu9_VAtx5HpP-24" style="edgeStyle=orthogonalEdgeStyle;rounded=0;orthogonalLoop=1;jettySize=auto;html=1;exitX=0;exitY=0.5;exitDx=0;exitDy=0;exitPerimeter=0;" parent="1" source="6xU7i69Siu9_VAtx5HpP-22" target="6xU7i69Siu9_VAtx5HpP-7" edge="1">
          <mxGeometry relative="1" as="geometry" />
        </mxCell>
        <mxCell id="6xU7i69Siu9_VAtx5HpP-25" value="无盈亏" style="edgeLabel;html=1;align=center;verticalAlign=middle;resizable=0;points=[];" parent="6xU7i69Siu9_VAtx5HpP-24" vertex="1" connectable="0">
          <mxGeometry x="-0.6774" relative="1" as="geometry">
            <mxPoint as="offset" />
          </mxGeometry>
        </mxCell>
        <mxCell id="6xU7i69Siu9_VAtx5HpP-22" value="" style="strokeWidth=1;html=1;shape=mxgraph.flowchart.annotation_2;align=left;labelPosition=right;pointerEvents=1;rotation=-90;" parent="1" vertex="1">
          <mxGeometry x="414" y="348" width="66" height="190" as="geometry" />
        </mxCell>
        <mxCell id="6xU7i69Siu9_VAtx5HpP-23" value="账实关联" style="text;html=1;align=center;verticalAlign=middle;whiteSpace=wrap;rounded=0;" parent="1" vertex="1">
          <mxGeometry x="417" y="410" width="60" height="30" as="geometry" />
        </mxCell>
        <mxCell id="6xU7i69Siu9_VAtx5HpP-26" value="盘亏" style="text;html=1;align=center;verticalAlign=middle;whiteSpace=wrap;rounded=0;rotation=-30;" parent="1" vertex="1">
          <mxGeometry x="220" y="520" width="60" height="30" as="geometry" />
        </mxCell>
        <mxCell id="6xU7i69Siu9_VAtx5HpP-29" value="无盈亏" style="text;html=1;align=center;verticalAlign=middle;whiteSpace=wrap;rounded=0;rotation=-30;" parent="1" vertex="1">
          <mxGeometry x="290" y="480.66999999999996" width="60" height="30" as="geometry" />
        </mxCell>
        <mxCell id="yxt1a1DNA4gMTyZLU4A9-1" style="edgeStyle=orthogonalEdgeStyle;rounded=0;orthogonalLoop=1;jettySize=auto;html=1;exitX=0.5;exitY=1;exitDx=0;exitDy=0;" edge="1" parent="1" source="yxt1a1DNA4gMTyZLU4A9-2" target="yxt1a1DNA4gMTyZLU4A9-4">
          <mxGeometry relative="1" as="geometry" />
        </mxCell>
        <mxCell id="yxt1a1DNA4gMTyZLU4A9-2" value="一体化导出" style="rounded=1;whiteSpace=wrap;html=1;" vertex="1" parent="1">
          <mxGeometry x="1220" y="134" width="120" height="60" as="geometry" />
        </mxCell>
        <mxCell id="yxt1a1DNA4gMTyZLU4A9-3" style="edgeStyle=orthogonalEdgeStyle;rounded=0;orthogonalLoop=1;jettySize=auto;html=1;exitX=0.5;exitY=1;exitDx=0;exitDy=0;" edge="1" parent="1" source="yxt1a1DNA4gMTyZLU4A9-4" target="yxt1a1DNA4gMTyZLU4A9-5">
          <mxGeometry relative="1" as="geometry" />
        </mxCell>
        <mxCell id="yxt1a1DNA4gMTyZLU4A9-4" value="清查云导入" style="rounded=1;whiteSpace=wrap;html=1;" vertex="1" parent="1">
          <mxGeometry x="1220" y="234" width="120" height="60" as="geometry" />
        </mxCell>
        <mxCell id="yxt1a1DNA4gMTyZLU4A9-5" value="资产账" style="rounded=1;whiteSpace=wrap;html=1;fillColor=#ffe6cc;strokeColor=#d79b00;" vertex="1" parent="1">
          <mxGeometry x="1220" y="334" width="120" height="60" as="geometry" />
        </mxCell>
        <mxCell id="yxt1a1DNA4gMTyZLU4A9-6" value="&lt;b&gt;贴码并录入系统，即原新增盘盈操作&lt;/b&gt;&lt;br&gt;&lt;div style=&quot;&quot;&gt;&lt;span style=&quot;background-color: initial;&quot;&gt;注意：&lt;/span&gt;&lt;/div&gt;&lt;div style=&quot;&quot;&gt;&lt;span style=&quot;background-color: initial;&quot;&gt;&lt;span style=&quot;white-space: pre;&quot;&gt;&#x9;&lt;/span&gt;此时录入系统为清查账，可以校验录入信息，避免后续需要重新去现场录入&lt;/span&gt;&lt;/div&gt;" style="rounded=1;whiteSpace=wrap;html=1;fillColor=#fff2cc;strokeColor=#d6b656;align=left;" vertex="1" parent="1">
          <mxGeometry x="1427.5" y="322" width="230.5" height="72" as="geometry" />
        </mxCell>
        <mxCell id="yxt1a1DNA4gMTyZLU4A9-7" value="资产实体" style="rounded=0;whiteSpace=wrap;html=1;fillColor=#dae8fc;strokeColor=#6c8ebf;" vertex="1" parent="1">
          <mxGeometry x="1030" y="444" width="120" height="60" as="geometry" />
        </mxCell>
        <mxCell id="yxt1a1DNA4gMTyZLU4A9-9" value="资产实体" style="rounded=0;whiteSpace=wrap;html=1;fillColor=#dae8fc;strokeColor=#6c8ebf;" vertex="1" parent="1">
          <mxGeometry x="1391" y="148" width="120" height="60" as="geometry" />
        </mxCell>
        <mxCell id="yxt1a1DNA4gMTyZLU4A9-27" style="edgeStyle=orthogonalEdgeStyle;rounded=0;orthogonalLoop=1;jettySize=auto;html=1;exitX=1;exitY=0.5;exitDx=0;exitDy=0;" edge="1" parent="1" source="yxt1a1DNA4gMTyZLU4A9-10" target="yxt1a1DNA4gMTyZLU4A9-26">
          <mxGeometry relative="1" as="geometry" />
        </mxCell>
        <mxCell id="yxt1a1DNA4gMTyZLU4A9-10" value="盘点结果" style="rounded=1;whiteSpace=wrap;html=1;fillColor=#d5e8d4;strokeColor=#82b366;" vertex="1" parent="1">
          <mxGeometry x="1357" y="584" width="120" height="60" as="geometry" />
        </mxCell>
        <mxCell id="yxt1a1DNA4gMTyZLU4A9-11" value="根据资产实体，完善资产信息" style="text;html=1;align=center;verticalAlign=middle;whiteSpace=wrap;rounded=0;" vertex="1" parent="1">
          <mxGeometry x="1160" y="414" width="110" height="55" as="geometry" />
        </mxCell>
        <mxCell id="yxt1a1DNA4gMTyZLU4A9-12" value="对如下情况：&lt;br&gt;1、无法直接在资产账中直接定位到&lt;br&gt;2、疑似为新增资产&lt;br&gt;进行贴清查码" style="text;html=1;align=left;verticalAlign=middle;whiteSpace=wrap;rounded=0;" vertex="1" parent="1">
          <mxGeometry x="1550" y="242" width="209" height="70" as="geometry" />
        </mxCell>
        <mxCell id="yxt1a1DNA4gMTyZLU4A9-13" value="" style="endArrow=classic;html=1;rounded=0;exitX=0.5;exitY=1;exitDx=0;exitDy=0;entryX=0.75;entryY=0;entryDx=0;entryDy=0;" edge="1" parent="1" source="yxt1a1DNA4gMTyZLU4A9-6" target="yxt1a1DNA4gMTyZLU4A9-10">
          <mxGeometry width="50" height="50" relative="1" as="geometry">
            <mxPoint x="1510" y="444" as="sourcePoint" />
            <mxPoint x="1560" y="394" as="targetPoint" />
            <Array as="points">
              <mxPoint x="1540" y="484" />
            </Array>
          </mxGeometry>
        </mxCell>
        <mxCell id="yxt1a1DNA4gMTyZLU4A9-14" value="确认盘盈" style="text;html=1;align=center;verticalAlign=middle;whiteSpace=wrap;rounded=0;" vertex="1" parent="1">
          <mxGeometry x="1540" y="439" width="60" height="30" as="geometry" />
        </mxCell>
        <mxCell id="yxt1a1DNA4gMTyZLU4A9-15" value="" style="strokeWidth=1;html=1;shape=mxgraph.flowchart.annotation_2;align=left;labelPosition=right;pointerEvents=1;rotation=-120;" vertex="1" parent="1">
          <mxGeometry x="1190" y="404" width="100" height="151.34" as="geometry" />
        </mxCell>
        <mxCell id="yxt1a1DNA4gMTyZLU4A9-16" value="" style="endArrow=classic;html=1;rounded=0;exitX=0;exitY=0.5;exitDx=0;exitDy=0;exitPerimeter=0;entryX=0.25;entryY=0;entryDx=0;entryDy=0;" edge="1" parent="1" source="yxt1a1DNA4gMTyZLU4A9-15" target="yxt1a1DNA4gMTyZLU4A9-10">
          <mxGeometry width="50" height="50" relative="1" as="geometry">
            <mxPoint x="1240" y="654" as="sourcePoint" />
            <mxPoint x="1290" y="604" as="targetPoint" />
          </mxGeometry>
        </mxCell>
        <mxCell id="yxt1a1DNA4gMTyZLU4A9-17" style="edgeStyle=orthogonalEdgeStyle;rounded=0;orthogonalLoop=1;jettySize=auto;html=1;exitX=0;exitY=0.5;exitDx=0;exitDy=0;exitPerimeter=0;" edge="1" parent="1" source="yxt1a1DNA4gMTyZLU4A9-19" target="yxt1a1DNA4gMTyZLU4A9-10">
          <mxGeometry relative="1" as="geometry" />
        </mxCell>
        <mxCell id="yxt1a1DNA4gMTyZLU4A9-18" value="无盈亏" style="edgeLabel;html=1;align=center;verticalAlign=middle;resizable=0;points=[];" vertex="1" connectable="0" parent="yxt1a1DNA4gMTyZLU4A9-17">
          <mxGeometry x="-0.6774" relative="1" as="geometry">
            <mxPoint as="offset" />
          </mxGeometry>
        </mxCell>
        <mxCell id="yxt1a1DNA4gMTyZLU4A9-19" value="" style="strokeWidth=1;html=1;shape=mxgraph.flowchart.annotation_2;align=left;labelPosition=right;pointerEvents=1;rotation=-90;" vertex="1" parent="1">
          <mxGeometry x="1384" y="332" width="66" height="190" as="geometry" />
        </mxCell>
        <mxCell id="yxt1a1DNA4gMTyZLU4A9-20" value="账实关联" style="text;html=1;align=center;verticalAlign=middle;whiteSpace=wrap;rounded=0;" vertex="1" parent="1">
          <mxGeometry x="1387" y="394" width="60" height="30" as="geometry" />
        </mxCell>
        <mxCell id="yxt1a1DNA4gMTyZLU4A9-21" value="盘亏" style="text;html=1;align=center;verticalAlign=middle;whiteSpace=wrap;rounded=0;rotation=-30;" vertex="1" parent="1">
          <mxGeometry x="1190" y="504" width="60" height="30" as="geometry" />
        </mxCell>
        <mxCell id="yxt1a1DNA4gMTyZLU4A9-22" value="无盈亏" style="text;html=1;align=center;verticalAlign=middle;whiteSpace=wrap;rounded=0;rotation=-30;" vertex="1" parent="1">
          <mxGeometry x="1260" y="464.66999999999996" width="60" height="30" as="geometry" />
        </mxCell>
        <mxCell id="yxt1a1DNA4gMTyZLU4A9-23" value="提前打印一批清查码" style="rounded=0;whiteSpace=wrap;html=1;fillColor=#f8cecc;strokeColor=#b85450;" vertex="1" parent="1">
          <mxGeometry x="1555" y="148" width="130" height="60" as="geometry" />
        </mxCell>
        <mxCell id="yxt1a1DNA4gMTyZLU4A9-25" style="edgeStyle=orthogonalEdgeStyle;rounded=0;orthogonalLoop=1;jettySize=auto;html=1;exitX=0;exitY=0.5;exitDx=0;exitDy=0;exitPerimeter=0;" edge="1" parent="1" source="yxt1a1DNA4gMTyZLU4A9-24" target="yxt1a1DNA4gMTyZLU4A9-6">
          <mxGeometry relative="1" as="geometry" />
        </mxCell>
        <mxCell id="yxt1a1DNA4gMTyZLU4A9-24" value="" style="strokeWidth=1;html=1;shape=mxgraph.flowchart.annotation_2;align=left;labelPosition=right;pointerEvents=1;rotation=-90;" vertex="1" parent="1">
          <mxGeometry x="1517" y="151" width="50" height="168" as="geometry" />
        </mxCell>
        <mxCell id="yxt1a1DNA4gMTyZLU4A9-26" value="资产实体" style="rounded=0;whiteSpace=wrap;html=1;fillColor=#dae8fc;strokeColor=#6c8ebf;" vertex="1" parent="1">
          <mxGeometry x="1720" y="584" width="120" height="60" as="geometry" />
        </mxCell>
        <mxCell id="yxt1a1DNA4gMTyZLU4A9-28" value="如需形成条码，则可以根据前面的清查码快速查询到资产码进行贴码" style="text;html=1;align=center;verticalAlign=middle;whiteSpace=wrap;rounded=0;" vertex="1" parent="1">
          <mxGeometry x="1508" y="578" width="202" height="30" as="geometry" />
        </mxCell>
      </root>
    </mxGraphModel>
  </diagram>
</mxfile>
